<svg width="23px" height="23px" viewBox="0 0 23 23" version="1.1" xmlns="http://www.w3.org/2000/svg" xmlns:xlink="http://www.w3.org/1999/xlink">    <!-- Generator: Sketch 47.1 (45422) - http://www.bohemiancoding.com/sketch -->
    <desc>Created with Sketch.</desc>
    <defs></defs>
    <g id="Page-3" stroke="none" stroke-width="1" fill="none" fill-rule="evenodd">
        <g id="1-Splash" transform="translate(-197.000000, -127.000000)" fill-rule="nonzero" fill="#1AC1A7">
            <g id="grasshoppr" transform="translate(90.000000, 63.000000)">
                <g id="Group-4" transform="translate(54.000000, 0.000000)">
                    <g id="Group-3" transform="translate(42.020446, 52.816857)">
                        <path d="M33.229291,26.8352811 C33.135997,26.8128109 32.9956807,26.7676211 32.8233492,26.7334168 C32.4769355,26.6582669 31.9899553,26.5818687 31.4204361,26.5476641 C30.8504168,26.5119618 30.1981085,26.5236962 29.5132849,26.5876109 C28.8284612,26.6530239 28.113123,26.7816025 27.4102908,26.9581174 C26.7077089,27.1371289 26.0171324,27.3633275 25.3843333,27.6324689 C25.1904918,27.7148592 25.0041536,27.8012442 24.8215673,27.888378 C24.9363717,27.7907582 25.0511759,27.6938872 25.167481,27.5900255 C25.4791282,27.306653 25.8020308,27.0053045 26.1186805,26.679988 C26.7557315,26.0308528 27.3810271,25.2985782 27.962802,24.5328484 C28.5410753,23.7653709 29.0780791,22.9656862 29.5305429,22.1774864 C29.981506,21.3887871 30.3589344,20.6195618 30.6413179,19.9289818 C30.9257023,19.2398999 31.117543,18.6319598 31.2328475,18.1917962 C31.2938764,17.9738366 31.3251411,17.7905807 31.3539048,17.67099 C31.3794167,17.5491524 31.3881708,17.4804938 31.3881708,17.4804938 C31.3881708,17.4804938 31.3241406,17.5077076 31.2138386,17.5653807 C31.1057874,17.6253009 30.937708,17.7051945 30.7438663,17.8222885 C30.3511808,18.0522321 29.8171785,18.4020161 29.2294005,18.8616538 C28.6398721,19.3197934 28.0003198,19.8910324 27.3617679,20.5384199 C26.7242166,21.1863068 26.0989212,21.9183315 25.5151453,22.6825634 C24.9343708,23.4487927 24.3968666,24.2482276 23.9446529,25.0356785 C23.7535627,25.3642408 23.5827319,25.690556 23.4209054,26.0086322 C23.5649735,25.3475131 23.6915334,24.629969 23.7848274,23.8739763 C23.9211418,22.7884224 23.9861726,21.6307148 23.987173,20.4730071 C23.9831713,19.3152994 23.9173901,18.1578414 23.7800752,17.0722876 C23.6457617,15.9869835 23.4444165,14.974083 23.2193101,14.1057398 C22.994704,13.237147 22.7415843,12.5138605 22.5354871,12.0072854 C22.3316406,11.5012096 22.1728155,11.2118451 22.1728155,11.2118451 C22.1728155,11.2118451 22.0137403,11.5012096 21.8101441,12.0077848 C21.6042969,12.5143599 21.3511772,13.2376463 21.1260708,14.1062391 C20.9014647,14.9745823 20.6998694,15.9874829 20.5658061,17.072787 C20.4282411,18.1583408 20.36246,19.3157988 20.3589583,20.4735064 C20.3597087,21.631214 20.4247394,22.7889218 20.561304,23.8744755 C20.6540978,24.6307181 20.7811579,25.3485118 20.9252259,26.0096309 C20.7633994,25.6915547 20.5925687,25.36474 20.4014784,25.0361778 C19.9485143,24.2487268 19.4112604,23.4495416 18.8307361,22.6830628 C18.2472103,21.918831 17.6216646,21.1865564 16.9838632,20.5389193 C16.3455615,19.8915317 15.7062594,19.3205424 15.1167308,18.8621531 C14.528953,18.4025155 13.9952007,18.0527315 13.6017648,17.8227878 C13.4081733,17.7056938 13.2395936,17.6258002 13.1320428,17.5658801 C13.0214905,17.5084566 12.9577104,17.4809932 12.9577104,17.4809932 C12.9577104,17.4809932 12.9667147,17.5496517 12.9922267,17.6714894 C13.0207402,17.79108 13.052005,17.9745856 13.1125336,18.1922955 C13.2280882,18.6324591 13.4204291,19.2401495 13.7045634,19.9294812 C13.9869468,20.6200612 14.3646253,21.3892863 14.8155885,22.1779856 C15.2678022,22.9661857 15.8045558,23.7658702 16.3833294,24.5333478 C16.9651043,25.2988278 17.5898996,26.0313521 18.2269507,26.6804873 C18.5436004,27.0058039 18.8670032,27.3071525 19.1781503,27.5905249 C19.2949555,27.6943865 19.4097597,27.7915071 19.524564,27.8888773 C19.3419777,27.8014938 19.1553895,27.7153585 18.961798,27.6329684 C18.3289989,27.3638268 17.6384226,27.1376281 16.9358405,26.9586167 C16.2325081,26.782102 15.51717,26.6532735 14.8325965,26.5881104 C14.1472726,26.5241954 13.4957146,26.5124611 12.9254451,26.5481636 C12.355926,26.5823679 11.8686957,26.6587661 11.522282,26.733916 C11.3502007,26.7681206 11.2098843,26.8133104 11.1163401,26.8357803 C11.0220456,26.8617457 10.9705212,26.8807205 10.9705212,26.8807205 C10.9705212,26.8807205 11.0067884,26.9221653 11.0770716,26.9903246 C11.1483553,27.0547386 11.2496531,27.161097 11.3849671,27.2731975 C11.6530938,27.5043896 12.0442787,27.8042401 12.5285075,28.1055887 C13.0122362,28.4089346 13.5902593,28.7097837 14.2230584,28.9804233 C14.8553573,29.2495647 15.5454334,29.4772613 16.2477653,29.6582702 C16.9505975,29.8362829 17.6656855,29.9663597 18.3500089,30.0317726 C18.7979706,30.0747154 19.2286741,30.092192 19.634616,30.0901948 C19.164894,30.2697056 18.6811654,30.4954048 18.2209479,30.7645463 C17.783241,31.017709 17.3660438,31.3063245 16.9916169,31.606175 C16.6169398,31.9045276 16.287284,32.2186092 16.0199076,32.513716 C15.7522811,32.8083236 15.5469341,33.0842059 15.4108698,33.2909306 C15.275806,33.4986539 15.2077738,33.6332246 15.2077738,33.6332246 C15.2077738,33.6332246 15.3588452,33.6409643 15.6067124,33.6274821 C15.8538291,33.6127519 16.1954906,33.5728051 16.5849247,33.4874188 C16.9743587,33.4030313 17.410815,33.2739532 17.857276,33.0981874 C18.303737,32.9231706 18.7622037,32.7057101 19.2001607,32.4525476 C20.0785758,31.9507161 20.8696997,31.2993339 21.4027017,30.7058745 C21.6698278,30.4107677 21.8751749,30.1348851 22.010989,29.9276612 C22.0497574,29.8672417 22.0817725,29.8155605 22.1097858,29.7686231 C22.1893234,29.7546417 22.2113339,29.7613827 22.2368457,29.7686231 C22.264609,29.8155605 22.296374,29.8672417 22.3353925,29.9276612 C22.4712066,30.1348851 22.6763036,30.4110173 22.9441802,30.7058745 C23.4766818,31.2993339 24.2675555,31.9512154 25.1464711,32.4525476 C25.5841779,32.7057101 26.0423944,32.9231706 26.4888554,33.0981874 C26.9353165,33.2737036 27.3720229,33.4030313 27.7614568,33.4874188 C28.1508909,33.5728051 28.4928026,33.6127519 28.7399193,33.6274821 C28.9875364,33.6412139 29.1386078,33.6332246 29.1386078,33.6332246 C29.1386078,33.6332246 29.0708257,33.4986539 28.9357619,33.2909306 C28.7994475,33.0842059 28.5938502,32.8080739 28.3259737,32.513716 C28.0593476,32.2186092 27.7294417,31.9047772 27.3547647,31.606175 C26.9805878,31.3063245 26.5633907,31.017709 26.1251836,30.7645463 C25.6649661,30.4954048 25.1814874,30.2697056 24.7120157,30.0901948 C25.1174572,30.092192 25.548411,30.0747154 25.9958725,30.0317726 C26.6806961,29.9663597 27.3955338,29.8362829 28.098366,29.6582702 C28.8004479,29.4772613 29.4905241,29.2495647 30.1233232,28.9804233 C30.7553719,28.7097837 31.3338953,28.4089346 31.8173737,28.1055887 C32.3016027,27.8042401 32.6927875,27.5043896 32.9614145,27.2731975 C33.0962282,27.161097 33.1977761,27.0547386 33.2690598,26.9903246 C33.339343,26.9221653 33.3756102,26.8807205 33.3756102,26.8807205 C33.3756102,26.8807205 33.3235856,26.8609969 33.229291,26.8352811 Z" id="Shape"></path>
                    </g>
                </g>
            </g>
        </g>
    </g>
</svg>
